<mxfile host="65bd71144e">
    <diagram id="I7cZ-JVnKxSc_iyFZrmY" name="Stakeholder">
        <mxGraphModel dx="1011" dy="790" grid="1" gridSize="10" guides="1" tooltips="1" connect="1" arrows="1" fold="1" page="1" pageScale="1" pageWidth="850" pageHeight="1100" math="0" shadow="0">
            <root>
                <mxCell id="0"/>
                <mxCell id="1" parent="0"/>
                <mxCell id="2" value="Users" style="ellipse;whiteSpace=wrap;html=1;" parent="1" vertex="1">
                    <mxGeometry x="140" y="10" width="310" height="190" as="geometry"/>
                </mxCell>
                <mxCell id="3" value="Developers" style="ellipse;whiteSpace=wrap;html=1;" parent="1" vertex="1">
                    <mxGeometry x="90" y="440" width="310" height="190" as="geometry"/>
                </mxCell>
                <mxCell id="4" value="Domain Expert" style="ellipse;whiteSpace=wrap;html=1;" parent="1" vertex="1">
                    <mxGeometry x="550" y="300" width="310" height="190" as="geometry"/>
                </mxCell>
            </root>
        </mxGraphModel>
    </diagram>
</mxfile>